<?xml version="1.0" standalone="no"?>
<!DOCTYPE svg PUBLIC "-//W3C//DTD SVG 20010904//EN"
 "http://www.w3.org/TR/2001/REC-SVG-20010904/DTD/svg10.dtd">
<svg version="1.0" xmlns="http://www.w3.org/2000/svg"
 width="512.000000pt" height="512.000000pt" viewBox="0 0 512.000000 512.000000"
 preserveAspectRatio="xMidYMid meet">
<metadata>
Created by potrace 1.14, written by Peter Selinger 2001-2017
</metadata>
<g transform="translate(0.000000,512.000000) scale(0.100000,-0.100000)"
fill="#000000" stroke="none">
<path d="M653 5104 c-320 -70 -570 -322 -638 -644 -23 -107 -23 -3693 0 -3800
68 -325 320 -577 645 -645 107 -23 3693 -23 3800 0 325 68 577 320 645 645 23
107 23 3693 0 3800 -68 325 -320 577 -645 645 -62 13 -315 15 -1908 14 -1507
-1 -1848 -3 -1899 -15z m2089 -424 c704 -120 1172 -691 1249 -1520 12 -129 7
-352 -11 -470 l-9 -64 52 -56 c200 -211 324 -447 373 -705 24 -132 15 -355
-19 -485 -29 -109 -76 -227 -107 -271 -44 -61 -148 -87 -223 -55 -21 8 -83 69
-163 159 -71 80 -132 145 -136 144 -4 -1 -90 -91 -192 -199 -477 -506 -748
-695 -1060 -739 -143 -20 -285 11 -472 102 -113 56 -176 116 -198 190 -22 73
-20 91 18 200 l33 95 -66 23 c-36 13 -111 45 -166 71 -524 251 -858 760 -926
1408 -17 163 -7 503 20 657 56 328 172 619 339 855 82 116 269 305 379 383
223 159 518 267 803 296 129 13 346 5 482 -19z"/>
<path d="M2242 4418 c-508 -63 -920 -396 -1122 -906 -134 -340 -172 -773 -99
-1149 88 -456 348 -812 734 -1005 115 -58 214 -94 224 -82 10 11 161 398 161
412 0 6 -30 24 -66 41 -166 78 -320 218 -407 372 -81 144 -147 394 -147 558
l0 51 1089 0 c784 0 1092 3 1097 11 13 22 17 353 5 454 -45 382 -174 684 -387
905 -186 193 -415 304 -699 339 -104 13 -278 12 -383 -1z m368 -413 c36 -9
103 -34 150 -57 70 -33 101 -56 172 -128 74 -75 93 -102 137 -191 69 -143 110
-314 111 -461 l0 -58 -825 0 -825 0 0 29 c0 87 89 352 157 466 137 228 313
359 553 410 81 18 278 12 370 -10z"/>
<path d="M3240 2430 l-525 -5 -110 -120 c-61 -66 -145 -160 -188 -207 l-79
-87 26 -55 c53 -111 68 -231 42 -336 -7 -30 -77 -218 -154 -418 -78 -199 -144
-373 -148 -385 -5 -21 2 -28 70 -60 41 -21 105 -44 143 -53 169 -40 358 27
579 204 113 90 396 367 568 554 l97 107 -160 177 c-89 97 -161 180 -161 184 0
11 191 181 200 178 4 -2 106 -111 225 -243 322 -354 419 -460 426 -463 9 -4
28 66 40 154 23 164 -8 339 -91 511 -52 106 -170 272 -237 333 l-38 35 -525
-5z m-160 -790 c0 -23 -30 -68 -69 -103 -93 -84 -230 -70 -308 32 -18 23 -33
51 -33 62 0 18 9 19 205 19 136 0 205 -4 205 -10z"/>
</g>
</svg>
